<mxfile host="app.diagrams.net" modified="2021-05-06T02:01:01.241Z" agent="5.0 (Macintosh; Intel Mac OS X 10_15_5) AppleWebKit/537.36 (KHTML, like Gecko) Chrome/81.0.4044.138 Safari/537.36" etag="gshYqcZdxXhhS8Pibmku" version="14.6.9" type="github">
  <diagram id="QtTd7y1f8K82799RmWL9" name="Page-1">
    <mxGraphModel dx="1298" dy="747" grid="1" gridSize="10" guides="1" tooltips="1" connect="1" arrows="1" fold="1" page="1" pageScale="1" pageWidth="827" pageHeight="1169" math="0" shadow="0">
      <root>
        <mxCell id="0" />
        <mxCell id="1" parent="0" />
        <mxCell id="bOASPBCjyHFlfKhIivsc-9" value="数据调用链路" style="rounded=0;whiteSpace=wrap;html=1;fontSize=14;dashed=1;verticalAlign=bottom;" vertex="1" parent="1">
          <mxGeometry x="170" y="110" width="460" height="450" as="geometry" />
        </mxCell>
        <mxCell id="bOASPBCjyHFlfKhIivsc-5" style="edgeStyle=orthogonalEdgeStyle;rounded=0;orthogonalLoop=1;jettySize=auto;html=1;entryX=0.5;entryY=0;entryDx=0;entryDy=0;fontSize=14;" edge="1" parent="1" source="bOASPBCjyHFlfKhIivsc-1" target="bOASPBCjyHFlfKhIivsc-2">
          <mxGeometry relative="1" as="geometry" />
        </mxCell>
        <mxCell id="bOASPBCjyHFlfKhIivsc-8" value="ak + as" style="edgeLabel;html=1;align=center;verticalAlign=middle;resizable=0;points=[];fontSize=14;" vertex="1" connectable="0" parent="bOASPBCjyHFlfKhIivsc-5">
          <mxGeometry x="-0.375" y="-2" relative="1" as="geometry">
            <mxPoint as="offset" />
          </mxGeometry>
        </mxCell>
        <mxCell id="bOASPBCjyHFlfKhIivsc-1" value="Node-Red" style="rounded=1;whiteSpace=wrap;html=1;fontSize=14;" vertex="1" parent="1">
          <mxGeometry x="250" y="140" width="120" height="60" as="geometry" />
        </mxCell>
        <mxCell id="bOASPBCjyHFlfKhIivsc-6" style="edgeStyle=orthogonalEdgeStyle;rounded=0;orthogonalLoop=1;jettySize=auto;html=1;entryX=0.5;entryY=0;entryDx=0;entryDy=0;fontSize=14;" edge="1" parent="1" source="bOASPBCjyHFlfKhIivsc-2" target="bOASPBCjyHFlfKhIivsc-3">
          <mxGeometry relative="1" as="geometry" />
        </mxCell>
        <mxCell id="bOASPBCjyHFlfKhIivsc-2" value="API网关" style="rounded=1;whiteSpace=wrap;html=1;fontSize=14;" vertex="1" parent="1">
          <mxGeometry x="250" y="290" width="120" height="60" as="geometry" />
        </mxCell>
        <mxCell id="bOASPBCjyHFlfKhIivsc-7" style="edgeStyle=orthogonalEdgeStyle;rounded=0;orthogonalLoop=1;jettySize=auto;html=1;entryX=0;entryY=0.5;entryDx=0;entryDy=0;fontSize=14;" edge="1" parent="1" source="bOASPBCjyHFlfKhIivsc-3" target="bOASPBCjyHFlfKhIivsc-4">
          <mxGeometry relative="1" as="geometry" />
        </mxCell>
        <mxCell id="bOASPBCjyHFlfKhIivsc-3" value="HaaStudio HSF" style="rounded=1;whiteSpace=wrap;html=1;fontSize=14;" vertex="1" parent="1">
          <mxGeometry x="250" y="450" width="120" height="60" as="geometry" />
        </mxCell>
        <mxCell id="bOASPBCjyHFlfKhIivsc-4" value="LP HSF" style="rounded=1;whiteSpace=wrap;html=1;fontSize=14;" vertex="1" parent="1">
          <mxGeometry x="450" y="450" width="120" height="60" as="geometry" />
        </mxCell>
      </root>
    </mxGraphModel>
  </diagram>
</mxfile>
